<?xml version="1.0" standalone="no"?>
<!DOCTYPE svg PUBLIC "-//W3C//DTD SVG 20010904//EN"
 "http://www.w3.org/TR/2001/REC-SVG-20010904/DTD/svg10.dtd">
<svg version="1.0" xmlns="http://www.w3.org/2000/svg"
 width="100%" height="100%" viewBox="135 120 400 400"
 preserveAspectRatio="xMidYMid meet">
<g transform="translate(0.000000,600.000000) scale(0.100000,-0.100000)"
fill="#ff9500" stroke="none">
<path d="M2078 4634 c-53 -28 -58 -54 -58 -277 0 -192 1 -206 21 -231 24 -31
69 -56 99 -56 36 0 85 28 103 59 24 41 25 416 2 461 -28 55 -109 76 -167 44z"/>
<path d="M3804 4634 c-59 -29 -64 -50 -64 -278 l0 -206 33 -35 c57 -63 157
-53 194 19 22 43 20 413 -3 457 -27 54 -99 73 -160 43z"/>
<path d="M1569 4346 c-100 -35 -170 -108 -200 -206 -19 -63 -19 -94 -17 -1305
l3 -1240 24 -52 c31 -70 111 -144 184 -172 l58 -21 1397 2 1397 3 53 28 c65
34 123 93 154 155 l23 47 0 1270 0 1270 -24 53 c-32 71 -115 147 -183 167 -36
10 -96 15 -200 15 l-148 0 0 -107 c0 -93 -4 -115 -24 -160 -80 -170 -325 -171
-410 -1 -23 46 -26 64 -26 160 l0 108 -630 0 -630 0 0 -112 c0 -93 -4 -119
-21 -155 -44 -91 -156 -146 -254 -124 -71 16 -128 60 -159 123 -23 46 -26 64
-26 160 l0 108 -152 0 c-99 -1 -166 -5 -189 -14z m2831 -1657 l0 -1021 -34
-34 -34 -34 -536 0 -536 0 0 255 c0 140 -2 255 -4 255 -2 0 -34 -21 -72 -46
-87 -58 -243 -138 -354 -180 l-85 -32 -3 -126 -3 -126 -534 0 -535 0 -32 29
-33 29 -3 1026 -2 1026 1400 0 1400 0 0 -1021z"/>
<path d="M2984 3483 c-7 -10 -71 -90 -144 -178 -288 -348 -440 -535 -440 -540
0 -3 77 -5 170 -5 l170 0 0 -211 0 -210 23 7 c31 9 149 69 232 117 83 48 255
167 255 177 0 4 -20 21 -45 39 l-46 33 40 46 c22 26 60 69 85 96 l46 49 86 -7
c69 -5 85 -4 77 6 -6 7 -107 130 -225 274 -118 143 -224 275 -237 292 -26 37
-32 39 -47 15z"/>
<path d="M4162 3369 c-45 -22 -83 -53 -138 -113 l-75 -83 -167 34 c-92 18
-202 39 -245 45 l-77 12 -30 -34 c-16 -19 -29 -38 -30 -42 0 -3 64 -41 143
-84 78 -42 159 -87 179 -99 l37 -21 -102 -107 -102 -107 -89 11 -89 10 -30
-30 -30 -30 47 -28 c26 -15 54 -32 62 -38 10 -8 -7 -27 -77 -85 -416 -347
-877 -500 -1107 -369 -106 60 -134 175 -79 321 14 37 42 92 62 124 20 31 34
58 32 60 -2 3 -45 -38 -95 -90 -71 -75 -100 -115 -134 -182 -41 -84 -43 -91
-43 -178 0 -79 4 -98 28 -148 97 -197 401 -254 748 -138 249 82 475 227 699
446 l115 113 34 -65 c18 -35 39 -64 45 -64 7 0 23 14 35 31 23 31 23 34 11
122 l-12 90 98 98 c54 55 101 99 104 99 4 0 47 -71 96 -157 49 -86 97 -166
106 -177 16 -21 17 -21 52 13 20 19 36 43 36 53 0 9 -22 117 -50 239 l-50 222
84 88 c46 48 93 107 105 131 27 57 28 114 2 128 -29 15 -42 13 -109 -21z"/>
</g>
</svg>
