<?xml version="1.0" standalone="no"?> <!DOCTYPE svg PUBLIC "-//W3C//DTD SVG 20010904//EN" "http://www.w3.org/TR/2001/REC-SVG-20010904/DTD/svg10.dtd"> <svg version="1.0" xmlns="http://www.w3.org/2000/svg" width="600.000000pt" height="600.000000pt" viewBox="120 90 435 435" preserveAspectRatio="xMidYMid meet"> <g transform="translate(0.000000,600.000000) scale(0.050000,-0.050000)" fill="#29008a" stroke="none"> <path d="M4155 9269 c-104 -57 -115 -108 -115 -555 0 -384 3 -412 42 -462 114 -145 316 -142 404 6 48 81 51 831 4 923 -57 109 -217 151 -335 88z"/> <path d="M7609 9269 c-119 -59 -129 -101 -129 -557 l0 -413 65 -70 c115 -125 315 -105 389 39 44 86 40 827 -5 915 -56 107 -199 146 -320 86z"/> <path d="M3138 8692 c-200 -71 -340 -215 -399 -412 -39 -127 -40 -188 -34 -2610 l5 -2480 47 -104 c64 -140 223 -288 370 -343 l116 -44 2793 6 2794 5 106 56 c130 68 247 186 308 310 l46 94 0 2540 0 2540 -48 105 c-123 273 -315 365 -766 365 l-296 0 0 -215 c-1 -339 -106 -504 -360 -565 -328 -79 -560 155 -560 564 l0 216 -1260 0 -1260 0 0 -224 c0 -332 -89 -476 -338 -549 -336 -98 -582 137 -582 557 l0 216 -305 -1 c-197 0 -331 -10 -377 -27z m5662 -3314 l0 -2042 -68 -68 -68 -68 -1072 0 -1072 0 0 510 c0 281 -3 510 -7 510 -4 0 -70 -42 -145 -92 -173 -116 -487 -275 -708 -359 l-170 -65 -6 -252 -5 -252 -1069 0 -1069 0 -66 58 -65 59 -5 2051 -6 2052 2801 0 2800 0 0 -2042z"/> <path d="M5967 6965 c-12 -19 -141 -179 -287 -355 -576 -697 -880 -1070 -880 -1080 0 -5 153 -10 340 -10 l340 0 0 -421 0 -422 45 14 c189 59 975 533 975 589 0 7 -41 42 -91 78 l-90 65 79 94 c44 51 120 137 170 191 l91 98 173 -13 c139 -11 169 -9 153 12 -11 14 -213 260 -448 546 -236 287 -449 550 -474 585 -53 74 -65 77 -96 29z"/> <path d="M8323 6738 c-90 -45 -164 -106 -274 -226 l-151 -165 -334 67 c-184 37 -404 77 -489 90 l-155 24 -59 -69 c-33 -38 -60 -75 -60 -82 -1 -7 127 -83 284 -168 157 -86 318 -175 359 -198 l73 -43 -203 -213 -204 -214 -178 21 -179 21 -59 -60 -60 -60 95 -57 c52 -31 107 -65 122 -76 59 -42 -505 -464 -914 -684 -1188 -640 -2069 -245 -1487 665 106 166 77 153 -126 -60 -656 -686 -385 -1411 526 -1411 656 0 1415 371 2070 1012 l231 226 67 -129 c75 -146 96 -155 161 -66 45 61 45 66 21 242 l-24 180 197 198 c108 108 202 197 208 197 6 0 92 -141 190 -314 245 -429 229 -412 318 -327 89 86 90 54 -29 583 l-99 444 167 175 c352 371 350 654 -5 477z"/> </g> </svg>